<svg width="10" height="9" viewBox="0 0 10 9" fill="none" xmlns="http://www.w3.org/2000/svg">
<path d="M4.64417 0.422591C4.70582 0.232866 4.97423 0.232866 5.03587 0.422592L5.90341 3.09259C5.93097 3.17743 6.01004 3.23488 6.09926 3.23488H8.90666C9.10615 3.23488 9.18909 3.49015 9.0277 3.60741L6.75646 5.25756C6.68429 5.31 6.65409 5.40295 6.68166 5.4878L7.54919 8.15779C7.61084 8.34752 7.39369 8.50528 7.2323 8.38803L4.96106 6.73788C4.88889 6.68544 4.79115 6.68544 4.71898 6.73788L2.44774 8.38803C2.28635 8.50528 2.06921 8.34752 2.13085 8.15779L2.99839 5.4878C3.02595 5.40295 2.99575 5.31 2.92358 5.25756L0.652343 3.60741C0.490953 3.49015 0.573897 3.23488 0.773386 3.23488H3.58079C3.67 3.23488 3.74907 3.17743 3.77664 3.09259L4.64417 0.422591Z" fill="#F1CC4A"/>
</svg>
